<svg width="569" height="534" viewBox="0 0 569 534" fill="none" xmlns="http://www.w3.org/2000/svg">
<path d="M286.232 11L407.909 221.75C408.678 223.083 407.716 224.75 406.177 224.75H162.823C161.284 224.75 160.322 223.083 161.091 221.75L282.768 11C283.538 9.66667 285.462 9.66665 286.232 11Z" fill="#FFD600" stroke="black" stroke-width="8" stroke-linejoin="round"/>
<path d="M418.232 240L539.909 450.75C540.678 452.083 539.716 453.75 538.177 453.75H294.823C293.284 453.75 292.322 452.083 293.091 450.75L414.768 240C415.538 238.667 417.462 238.667 418.232 240Z" fill="#FFD600" stroke="black" stroke-width="8" stroke-linejoin="round"/>
<path d="M154.232 240L275.909 450.75C276.678 452.083 275.716 453.75 274.177 453.75H30.8234C29.2838 453.75 28.3216 452.083 29.0914 450.75L150.768 240C151.538 238.667 153.462 238.667 154.232 240Z" fill="#FFD600" stroke="black" stroke-width="8" stroke-linejoin="round"/>
</svg>
